<?xml version="1.0" standalone="no"?>
<!DOCTYPE svg PUBLIC "-//W3C//DTD SVG 20010904//EN"
 "http://www.w3.org/TR/2001/REC-SVG-20010904/DTD/svg10.dtd">
<svg version="1.0" xmlns="http://www.w3.org/2000/svg"
 width="474.000000pt" height="526.000000pt" viewBox="0 0 474.000000 526.000000"
 preserveAspectRatio="xMidYMid meet">

<g transform="translate(0.000000,526.000000) scale(0.100000,-0.100000)"
fill="#000000" stroke="none">
<path d="M1730 5253 c-183 -21 -377 -117 -496 -245 -56 -60 -130 -189 -157
-273 -32 -102 -31 -266 2 -352 21 -57 97 -161 108 -149 3 2 9 55 14 117 11
133 39 207 90 238 34 21 134 37 298 47 56 3 131 12 165 19 33 7 62 12 64 10 2
-2 -5 -20 -16 -42 -20 -38 -25 -72 -23 -143 l1 -35 19 32 c28 45 94 80 205
108 110 28 148 45 194 88 l32 31 0 -60 c0 -54 11 -108 36 -169 6 -16 1 -14
-22 9 -46 45 -103 69 -164 70 -69 1 -80 -6 -80 -50 l0 -36 38 7 c54 9 127 -10
196 -51 60 -36 79 -38 55 -7 -7 10 16 -9 51 -42 75 -70 168 -149 181 -153 5
-2 10 -31 10 -65 1 -34 4 -49 6 -32 5 34 27 54 63 56 24 2 24 2 2 6 -13 3 -30
-1 -38 -8 -19 -15 -31 -4 -15 15 6 8 14 22 16 32 3 11 16 52 30 92 58 172 55
295 -10 428 -36 74 -134 186 -173 198 -12 4 -35 30 -52 57 -56 92 -112 142
-209 188 -126 60 -267 81 -421 64z m179 -47 c-2 -3 -47 -12 -99 -20 -115 -20
-246 -60 -280 -87 l-25 -20 25 5 c71 15 226 27 261 21 l40 -7 -123 -68 c-67
-38 -124 -73 -126 -79 -8 -25 230 17 314 55 74 34 79 34 44 7 -56 -45 -148
-80 -282 -108 -146 -29 -198 -46 -251 -81 l-39 -25 7 23 c22 69 112 151 233
212 28 14 52 28 52 31 0 18 -184 -40 -260 -82 -69 -38 -166 -121 -212 -180
-22 -30 -43 -52 -45 -49 -2 2 10 39 28 82 28 68 44 91 119 164 64 64 105 95
160 122 66 32 206 71 295 81 45 6 169 8 164 3z m185 -216 c-4 -25 -21 -61 -41
-86 l-33 -45 39 20 c43 22 111 96 111 120 1 13 2 13 11 -2 12 -21 -2 -101 -26
-147 -21 -42 -3 -37 34 7 19 23 36 61 45 97 l14 61 1 -63 c1 -77 -16 -121 -60
-155 -42 -30 -120 -70 -174 -87 -22 -7 -66 -25 -98 -41 l-59 -30 20 28 c33 47
61 67 135 98 52 22 78 40 94 64 36 54 24 69 -24 31 -34 -26 -127 -60 -166 -60
l-32 0 40 26 c79 53 146 131 161 188 10 41 16 24 8 -24z"/>
<path d="M3540 4787 c0 -2 15 -16 33 -33 l32 -29 -29 33 c-28 30 -36 37 -36
29z"/>
<path d="M3429 4733 c-13 -16 -12 -17 4 -4 9 7 17 15 17 17 0 8 -8 3 -21 -13z"/>
<path d="M3515 4730 c10 -11 20 -20 23 -20 3 0 -3 9 -13 20 -10 11 -20 20 -23
20 -3 0 3 -9 13 -20z"/>
<path d="M3412 4683 c2 -14 9 -28 16 -29 7 -1 8 0 2 3 -5 2 -10 14 -10 25 0
16 5 19 25 16 13 -3 22 -1 19 3 -3 5 -16 9 -30 9 -22 0 -25 -4 -22 -27z"/>
<path d="M3613 4645 c0 -27 2 -38 4 -22 2 15 2 37 0 50 -2 12 -4 0 -4 -28z"/>
<path d="M3471 4664 c0 -11 3 -14 6 -6 3 7 2 16 -1 19 -3 4 -6 -2 -5 -13z"/>
<path d="M3552 4645 c0 -16 2 -22 5 -12 2 9 2 23 0 30 -3 6 -5 -1 -5 -18z"/>
<path d="M3370 4642 c0 -7 -16 -13 -37 -13 -21 -1 -1 -6 45 -11 71 -9 82 -13
82 -29 0 -17 -8 -19 -62 -20 -35 0 -83 -4 -108 -9 -45 -9 -45 -9 10 -5 30 3
81 5 113 5 58 0 58 0 55 28 -3 23 -8 27 -38 30 -19 2 -41 10 -47 19 -8 10 -13
12 -13 5z"/>
<path d="M3228 4613 c6 -2 18 -2 25 0 6 3 1 5 -13 5 -14 0 -19 -2 -12 -5z"/>
<path d="M2840 4606 c0 -2 8 -10 18 -17 15 -13 16 -12 3 4 -13 16 -21 21 -21
13z"/>
<path d="M2763 4583 c9 -2 23 -2 30 0 6 3 -1 5 -18 5 -16 0 -22 -2 -12 -5z"/>
<path d="M2806 4565 c-4 -10 -2 -14 5 -9 6 4 15 0 20 -7 5 -8 9 -9 9 -3 0 6
-6 17 -14 23 -11 9 -15 8 -20 -4z"/>
<path d="M3526 4563 c-6 -14 -5 -15 5 -6 7 7 10 15 7 18 -3 3 -9 -2 -12 -12z"/>
<path d="M2878 4539 c2 -16 -1 -36 -8 -44 -15 -18 -51 -19 -70 -2 -8 6 -6 2 4
-10 19 -23 38 -21 69 5 17 15 24 67 9 76 -5 3 -6 -8 -4 -25z"/>
<path d="M1502 4546 c-70 -23 -152 -99 -152 -142 0 -6 35 7 78 29 70 38 84 41
150 41 67 -1 72 1 72 21 0 54 -66 77 -148 51z"/>
<path d="M3208 4543 c6 -2 18 -2 25 0 6 3 1 5 -13 5 -14 0 -19 -2 -12 -5z"/>
<path d="M3586 4535 c-9 -26 -7 -32 5 -12 6 10 9 21 6 23 -2 3 -7 -2 -11 -11z"/>
<path d="M2712 4510 c0 -19 2 -27 5 -17 2 9 2 25 0 35 -3 9 -5 1 -5 -18z"/>
<path d="M2781 4524 c0 -11 3 -14 6 -6 3 7 2 16 -1 19 -3 4 -6 -2 -5 -13z"/>
<path d="M3168 4533 c7 -3 16 -2 19 1 4 3 -2 6 -13 5 -11 0 -14 -3 -6 -6z"/>
<path d="M3475 4505 c3 -22 5 -73 5 -114 0 -41 3 -72 6 -68 4 3 6 45 5 93 -1
70 2 91 16 108 18 21 18 21 -4 3 -21 -18 -21 -18 -27 0 -3 10 -3 0 -1 -22z"/>
<path d="M2825 4520 c-3 -5 -1 -10 4 -10 6 0 11 5 11 10 0 6 -2 10 -4 10 -3 0
-8 -4 -11 -10z"/>
<path d="M3128 4523 c7 -3 16 -2 19 1 4 3 -2 6 -13 5 -11 0 -14 -3 -6 -6z"/>
<path d="M3088 4513 c7 -3 16 -2 19 1 4 3 -2 6 -13 5 -11 0 -14 -3 -6 -6z"/>
<path d="M2980 4480 c-8 -5 -10 -10 -5 -10 6 0 17 5 25 10 8 5 11 10 5 10 -5
0 -17 -5 -25 -10z"/>
<path d="M2920 4455 c-14 -8 -20 -14 -15 -14 6 0 21 6 35 14 14 8 21 14 15 14
-5 0 -21 -6 -35 -14z"/>
<path d="M2670 4406 c0 -2 8 -10 18 -17 15 -13 16 -12 3 4 -13 16 -21 21 -21
13z"/>
<path d="M3509 4393 c-13 -16 -12 -17 4 -4 16 13 21 21 13 21 -2 0 -10 -8 -17
-17z"/>
<path d="M2720 4345 c13 -14 26 -25 28 -25 3 0 -5 11 -18 25 -13 14 -26 25
-28 25 -3 0 5 -11 18 -25z"/>
<path d="M2848 4365 c-7 -8 58 -142 74 -151 11 -6 11 -5 0 8 -7 9 -26 46 -41
82 -15 36 -30 64 -33 61z"/>
<path d="M1444 4331 c-42 -25 -68 -83 -69 -151 0 -53 1 -56 35 -72 51 -26 154
-24 180 2 24 24 28 122 6 174 -27 64 -91 84 -152 47z m107 -11 c31 -17 49 -64
49 -129 0 -51 -3 -62 -22 -75 -29 -20 -117 -21 -163 -2 -32 14 -35 18 -35 57
0 54 34 125 68 144 32 17 76 19 103 5z"/>
<path d="M1450 4240 c-43 -43 -11 -120 48 -120 36 0 65 31 65 70 0 62 -70 93
-113 50z m57 -25 c7 -20 -2 -29 -21 -22 -9 4 -13 13 -10 22 8 19 23 19 31 0z"/>
<path d="M2105 4326 c-51 -51 -59 -182 -14 -219 20 -16 36 -18 97 -15 66 3 77
6 98 31 26 30 25 56 -2 134 -31 87 -125 123 -179 69z m140 -29 c53 -53 62
-160 15 -184 -30 -15 -134 -17 -160 -3 -42 22 -33 158 12 200 35 33 93 27 133
-13z"/>
<path d="M2132 4244 c-26 -18 -30 -69 -6 -102 22 -32 76 -30 103 4 12 15 21
34 21 44 0 10 -9 29 -21 44 -24 30 -63 34 -97 10z m54 -25 c10 -17 -13 -36
-27 -22 -12 12 -4 33 11 33 5 0 12 -5 16 -11z"/>
<path d="M2760 4316 c0 -2 8 -10 18 -17 15 -13 16 -12 3 4 -13 16 -21 21 -21
13z"/>
<path d="M3471 4264 c0 -11 3 -14 6 -6 3 7 2 16 -1 19 -3 4 -6 -2 -5 -13z"/>
<path d="M2731 4254 c0 -11 3 -14 6 -6 3 7 2 16 -1 19 -3 4 -6 -2 -5 -13z"/>
<path d="M993 4215 c0 -22 2 -30 4 -17 2 12 2 30 0 40 -3 9 -5 -1 -4 -23z"/>
<path d="M1073 4242 c-7 -4 8 -7 32 -7 23 0 41 3 38 8 -6 9 -54 9 -70 -1z"/>
<path d="M2600 4246 c0 -2 13 -6 29 -8 17 -2 28 -1 25 4 -5 8 -54 12 -54 4z"/>
<path d="M1171 4213 c7 -12 15 -20 18 -17 3 2 -3 12 -13 22 -17 16 -18 16 -5
-5z"/>
<path d="M1106 4181 c-3 -4 5 -6 18 -4 41 8 64 -12 69 -60 l4 -42 1 42 c2 33
-3 45 -20 57 -24 17 -64 21 -72 7z"/>
<path d="M3419 4153 c-13 -16 -12 -17 4 -4 9 7 17 15 17 17 0 8 -8 3 -21 -13z"/>
<path d="M2980 4125 c13 -14 26 -25 28 -25 3 0 -5 11 -18 25 -13 14 -26 25
-28 25 -3 0 5 -11 18 -25z"/>
<path d="M3381 4107 c-6 -8 -29 -22 -51 -32 -22 -10 -38 -20 -36 -22 6 -7 81
34 95 51 8 9 11 16 8 16 -2 0 -10 -6 -16 -13z"/>
<path d="M2520 4054 c0 -14 4 -23 9 -20 5 3 7 15 4 26 -7 28 -13 25 -13 -6z"/>
<path d="M2674 4058 l-19 -23 23 19 c12 11 22 21 22 23 0 8 -8 2 -26 -19z"/>
<path d="M3386 4053 c-6 -14 -5 -15 5 -6 7 7 10 15 7 18 -3 3 -9 -2 -12 -12z"/>
<path d="M3080 4050 c8 -5 22 -9 30 -9 10 0 8 3 -5 9 -27 12 -43 12 -25 0z"/>
<path d="M1196 4035 c4 -8 8 -15 10 -15 2 0 4 7 4 15 0 8 -4 15 -10 15 -5 0
-7 -7 -4 -15z"/>
<path d="M3258 4043 c7 -3 16 -2 19 1 4 3 -2 6 -13 5 -11 0 -14 -3 -6 -6z"/>
<path d="M3168 4033 c6 -2 18 -2 25 0 6 3 1 5 -13 5 -14 0 -19 -2 -12 -5z"/>
<path d="M3330 4024 c-31 -13 -32 -14 -6 -9 18 4 32 1 37 -7 6 -9 9 -6 9 10 0
12 -1 22 -2 21 -2 0 -19 -7 -38 -15z"/>
<path d="M1113 4023 c9 -2 25 -2 35 0 9 3 1 5 -18 5 -19 0 -27 -2 -17 -5z"/>
<path d="M2583 4023 c9 -2 25 -2 35 0 9 3 1 5 -18 5 -19 0 -27 -2 -17 -5z"/>
<path d="M2511 3994 c0 -11 3 -14 6 -6 3 7 2 16 -1 19 -3 4 -6 -2 -5 -13z"/>
<path d="M3268 4003 c7 -3 16 -2 19 1 4 3 -2 6 -13 5 -11 0 -14 -3 -6 -6z"/>
<path d="M3218 3993 c6 -2 18 -2 25 0 6 3 1 5 -13 5 -14 0 -19 -2 -12 -5z"/>
<path d="M3160 3986 c0 -2 8 -10 17 -17 9 -8 14 -9 10 -2 -4 6 -1 14 5 16 7 3
3 6 -9 6 -13 1 -23 -1 -23 -3z"/>
<path d="M3350 3981 c0 -6 -15 -18 -32 -26 -18 -8 -26 -14 -17 -15 22 0 66 36
57 46 -5 4 -8 2 -8 -5z"/>
<path d="M2501 3944 c0 -11 3 -14 6 -6 3 7 2 16 -1 19 -3 4 -6 -2 -5 -13z"/>
<path d="M3210 3932 c0 -4 16 -6 35 -4 19 2 35 6 35 8 0 2 -16 4 -35 4 -19 0
-35 -4 -35 -8z"/>
<path d="M3221 3890 c-1 -11 10 -15 43 -15 30 0 40 3 29 8 -8 5 -25 7 -39 4
-13 -2 -25 1 -28 7 -2 6 -5 4 -5 -4z"/>
<path d="M3355 3890 c-3 -5 -1 -10 4 -10 6 0 11 5 11 10 0 6 -2 10 -4 10 -3 0
-8 -4 -11 -10z"/>
<path d="M2143 3877 c0 -8 6 -14 14 -14 9 0 10 4 2 14 -6 7 -12 13 -14 13 -1
0 -2 -6 -2 -13z"/>
<path d="M3320 3870 c0 -5 7 -10 16 -10 8 0 12 5 9 10 -3 6 -10 10 -16 10 -5
0 -9 -4 -9 -10z"/>
<path d="M1625 3811 c27 -53 87 -126 117 -142 14 -8 18 -8 14 0 -11 17 53 42
110 42 57 0 124 -28 101 -43 -9 -6 -9 -8 1 -8 24 0 101 82 126 133 13 29 23
53 22 55 -2 1 -16 -4 -32 -13 -51 -26 -135 -37 -249 -33 -88 4 -123 10 -172
30 l-62 25 24 -46z"/>
<path d="M3144 3818 l-19 -23 23 19 c21 18 27 26 19 26 -2 0 -12 -10 -23 -22z"/>
<path d="M3376 3823 c-6 -14 -5 -15 5 -6 7 7 10 15 7 18 -3 3 -9 -2 -12 -12z"/>
<path d="M3394 3808 c-29 -31 -29 -31 -2 -12 15 10 29 25 32 32 8 18 2 15 -30
-20z"/>
<path d="M3270 3805 c0 -8 2 -15 4 -15 2 0 6 7 10 15 3 8 1 15 -4 15 -6 0 -10
-7 -10 -15z"/>
<path d="M3323 3803 c9 -2 23 -2 30 0 6 3 -1 5 -18 5 -16 0 -22 -2 -12 -5z"/>
<path d="M3447 3789 c4 -13 8 -18 11 -10 2 7 -1 18 -6 23 -8 8 -9 4 -5 -13z"/>
<path d="M3340 3770 c-9 -6 -10 -10 -3 -10 6 0 15 5 18 10 8 12 4 12 -15 0z"/>
<path d="M2419 3753 c-13 -16 -12 -17 4 -4 9 7 17 15 17 17 0 8 -8 3 -21 -13z"/>
<path d="M3250 3749 c0 -5 5 -7 10 -4 6 3 10 8 10 11 0 2 -4 4 -10 4 -5 0 -10
-5 -10 -11z"/>
<path d="M3425 3746 c-18 -13 -18 -14 8 -9 15 3 24 9 21 14 -7 12 -7 12 -29
-5z"/>
<path d="M1345 3710 c21 -22 41 -40 44 -40 3 0 -13 18 -34 40 -21 22 -41 40
-44 40 -3 0 13 -18 34 -40z"/>
<path d="M3281 3732 c-1 -16 6 -26 19 -29 11 -3 20 -10 20 -17 0 -8 2 -8 8 0
4 6 14 14 22 17 8 3 -2 6 -22 6 -30 1 -37 5 -41 24 -4 22 -4 22 -6 -1z"/>
<path d="M3261 3714 c0 -11 3 -14 6 -6 3 7 2 16 -1 19 -3 4 -6 -2 -5 -13z"/>
<path d="M2349 3683 c-13 -16 -12 -17 4 -4 9 7 17 15 17 17 0 8 -8 3 -21 -13z"/>
<path d="M3449 3683 c-13 -16 -12 -17 4 -4 16 13 21 21 13 21 -2 0 -10 -8 -17
-17z"/>
<path d="M3271 3674 c0 -11 3 -14 6 -6 3 7 2 16 -1 19 -3 4 -6 -2 -5 -13z"/>
<path d="M1910 3649 c-14 -6 -45 -8 -70 -5 -30 3 -38 2 -25 -4 30 -13 76 -11
110 5 35 16 22 19 -15 4z"/>
<path d="M3328 3648 c6 -6 18 -8 28 -6 14 3 12 5 -9 10 -19 3 -25 2 -19 -4z"/>
<path d="M3281 3634 c0 -11 3 -14 6 -6 3 7 2 16 -1 19 -3 4 -6 -2 -5 -13z"/>
<path d="M3431 3624 c0 -11 3 -14 6 -6 3 7 2 16 -1 19 -3 4 -6 -2 -5 -13z"/>
<path d="M3293 3576 c2 -33 -2 -42 -23 -53 -19 -10 -21 -13 -7 -13 35 0 50 26
39 68 l-11 37 2 -39z"/>
<path d="M3405 3588 c-11 -6 -22 -14 -25 -18 -3 -4 -18 -12 -35 -19 -21 -8
-22 -9 -5 -5 14 3 48 8 76 11 46 5 53 3 68 -18 19 -28 12 -33 -52 -44 -24 -4
-41 -9 -39 -11 3 -3 33 0 69 7 l64 12 -30 33 c-16 19 -34 34 -39 34 -5 0 -15
7 -21 15 -9 11 -15 12 -31 3z m25 -8 c0 -5 -8 -10 -17 -10 -15 0 -16 2 -3 10
19 12 20 12 20 0z"/>
<path d="M3069 3553 c-13 -16 -12 -17 4 -4 9 7 17 15 17 17 0 8 -8 3 -21 -13z"/>
<path d="M1708 3543 c7 -3 16 -2 19 1 4 3 -2 6 -13 5 -11 0 -14 -3 -6 -6z"/>
<path d="M1750 3543 c0 -13 14 -28 30 -31 11 -3 10 2 -4 17 -20 22 -26 25 -26
14z"/>
<path d="M1940 3519 c-20 -16 -21 -18 -4 -10 12 6 24 8 26 5 3 -3 8 2 11 11 8
21 -3 19 -33 -6z"/>
<path d="M3019 3493 c-13 -16 -12 -17 4 -4 16 13 21 21 13 21 -2 0 -10 -8 -17
-17z"/>
<path d="M1843 3493 c15 -2 37 -2 50 0 12 2 0 4 -28 4 -27 0 -38 -2 -22 -4z"/>
<path d="M3271 3481 c-1 -14 -9 -34 -18 -45 l-18 -21 25 20 c14 11 25 20 26
20 0 0 -3 11 -7 25 l-7 25 -1 -24z"/>
<path d="M3308 3463 c7 -3 16 -2 19 1 4 3 -2 6 -13 5 -11 0 -14 -3 -6 -6z"/>
<path d="M3573 3460 c3 -12 -40 -26 -202 -67 -113 -29 -210 -51 -216 -49 -5 1
-23 -5 -40 -14 -26 -15 -30 -22 -30 -62 0 -25 3 -44 6 -42 4 2 17 -38 29 -89
13 -50 26 -95 29 -100 4 -4 77 9 162 29 380 89 483 115 490 122 4 4 -7 68 -25
142 -37 153 -35 151 -130 127 -51 -14 -57 -14 -67 1 -7 13 -9 13 -6 2z"/>
<path d="M2038 3443 c6 -2 18 -2 25 0 6 3 1 5 -13 5 -14 0 -19 -2 -12 -5z"/>
<path d="M2118 3433 c7 -3 16 -2 19 1 4 3 -2 6 -13 5 -11 0 -14 -3 -6 -6z"/>
<path d="M2178 3423 c7 -3 16 -2 19 1 4 3 -2 6 -13 5 -11 0 -14 -3 -6 -6z"/>
<path d="M1548 3413 c6 -2 18 -2 25 0 6 3 1 5 -13 5 -14 0 -19 -2 -12 -5z"/>
<path d="M2914 3378 l-19 -23 23 19 c12 11 22 21 22 23 0 8 -8 2 -26 -19z"/>
<path d="M3156 3385 c-9 -26 -7 -32 5 -12 6 10 9 21 6 23 -2 3 -7 -2 -11 -11z"/>
<path d="M1435 3380 c-3 -5 -1 -10 4 -10 6 0 11 5 11 10 0 6 -2 10 -4 10 -3 0
-8 -4 -11 -10z"/>
<path d="M1359 3333 c-13 -16 -12 -17 4 -4 16 13 21 21 13 21 -2 0 -10 -8 -17
-17z"/>
<path d="M1755 3330 c10 -11 20 -20 23 -20 3 0 -3 9 -13 20 -10 11 -20 20 -23
20 -3 0 3 -9 13 -20z"/>
<path d="M1974 3328 l-19 -23 23 19 c21 18 27 26 19 26 -2 0 -12 -10 -23 -22z"/>
<path d="M1460 3335 c0 -5 5 -17 10 -25 5 -8 10 -10 10 -5 0 6 -5 17 -10 25
-5 8 -10 11 -10 5z"/>
<path d="M2323 3260 c0 -30 2 -43 4 -27 2 15 2 39 0 55 -2 15 -4 2 -4 -28z"/>
<path d="M1491 3254 c0 -11 3 -14 6 -6 3 7 2 16 -1 19 -3 4 -6 -2 -5 -13z"/>
<path d="M1501 3214 c0 -11 3 -14 6 -6 3 7 2 16 -1 19 -3 4 -6 -2 -5 -13z"/>
<path d="M1199 3183 c-13 -16 -12 -17 4 -4 9 7 17 15 17 17 0 8 -8 3 -21 -13z"/>
<path d="M1512 3165 c0 -16 2 -22 5 -12 2 9 2 23 0 30 -3 6 -5 -1 -5 -18z"/>
<path d="M2313 3120 c0 -41 2 -58 4 -37 2 20 2 54 0 75 -2 20 -4 3 -4 -38z"/>
<path d="M1139 3113 c-13 -16 -12 -17 4 -4 9 7 17 15 17 17 0 8 -8 3 -21 -13z"/>
<path d="M1518 3050 c-2 -38 0 -80 4 -92 3 -13 6 19 7 70 1 50 -1 92 -3 92 -2
0 -6 -31 -8 -70z"/>
<path d="M2701 3034 c0 -11 3 -14 6 -6 3 7 2 16 -1 19 -3 4 -6 -2 -5 -13z"/>
<path d="M2300 3020 c0 -11 4 -20 9 -20 5 0 7 9 4 20 -3 11 -7 20 -9 20 -2 0
-4 -9 -4 -20z"/>
<path d="M2959 3013 c-13 -16 -12 -17 4 -4 16 13 21 21 13 21 -2 0 -10 -8 -17
-17z"/>
<path d="M2302 2940 c0 -14 2 -19 5 -12 2 6 2 18 0 25 -3 6 -5 1 -5 -13z"/>
<path d="M2788 2953 c7 -3 16 -2 19 1 4 3 -2 6 -13 5 -11 0 -14 -3 -6 -6z"/>
<path d="M945 2899 c-4 -6 -5 -12 -2 -15 2 -3 7 2 10 11 7 17 1 20 -8 4z"/>
<path d="M932 2850 c0 -14 2 -19 5 -12 2 6 2 18 0 25 -3 6 -5 1 -5 -13z"/>
<path d="M1379 2843 l-24 -28 28 24 c25 23 32 31 24 31 -2 0 -14 -12 -28 -27z"/>
<path d="M1512 2845 c0 -16 2 -22 5 -12 2 9 2 23 0 30 -3 6 -5 -1 -5 -18z"/>
<path d="M1101 2857 c2 -1 13 -9 24 -17 19 -14 19 -14 6 3 -7 9 -18 17 -24 17
-6 0 -8 -1 -6 -3z"/>
<path d="M1502 2730 c0 -14 2 -19 5 -12 2 6 2 18 0 25 -3 6 -5 1 -5 -13z"/>
<path d="M1492 2625 c0 -16 2 -22 5 -12 2 9 2 23 0 30 -3 6 -5 -1 -5 -18z"/>
<path d="M1563 2573 c9 -2 23 -2 30 0 6 3 -1 5 -18 5 -16 0 -22 -2 -12 -5z"/>
<path d="M1688 2562 c9 -10 19 -17 21 -16 6 5 -20 34 -30 34 -5 0 -1 -8 9 -18z"/>
<path d="M1485 2550 c-3 -6 1 -7 9 -4 18 7 21 14 7 14 -6 0 -13 -4 -16 -10z"/>
<path d="M1618 2523 c6 -2 18 -2 25 0 6 3 1 5 -13 5 -14 0 -19 -2 -12 -5z"/>
<path d="M2300 2511 c0 -11 4 -22 9 -25 4 -3 6 6 3 19 -5 30 -12 33 -12 6z"/>
<path d="M1580 2510 c8 -5 22 -10 30 -10 13 0 13 1 0 10 -8 5 -22 10 -30 10
-13 0 -13 -1 0 -10z"/>
<path d="M1429 2493 c-13 -16 -12 -17 4 -4 9 7 17 15 17 17 0 8 -8 3 -21 -13z"/>
<path d="M1648 2493 c7 -3 16 -2 19 1 4 3 -2 6 -13 5 -11 0 -14 -3 -6 -6z"/>
<path d="M1711 2477 c2 -1 15 -11 29 -22 l25 -20 -19 23 c-11 12 -24 22 -29
22 -6 0 -8 -1 -6 -3z"/>
<path d="M2286 2454 c-4 -14 -5 -28 -3 -31 3 -2 8 8 11 23 4 14 5 28 3 31 -3
2 -8 -8 -11 -23z"/>
<path d="M1140 2466 c0 -2 8 -10 18 -17 15 -13 16 -12 3 4 -13 16 -21 21 -21
13z"/>
<path d="M1618 2433 c6 -2 18 -2 25 0 6 3 1 5 -13 5 -14 0 -19 -2 -12 -5z"/>
<path d="M1680 2423 c8 -3 23 -10 34 -15 12 -7 16 -7 12 0 -3 6 4 13 16 15 13
2 1 5 -27 5 -27 0 -43 -2 -35 -5z"/>
<path d="M1670 2366 c0 -9 30 -14 35 -6 4 6 -3 10 -14 10 -12 0 -21 -2 -21 -4z"/>
<path d="M1717 2354 c-3 -3 -3 -12 -1 -19 4 -9 -5 -15 -28 -18 l-33 -5 35 2
c24 1 35 6 35 16 0 8 5 18 10 22 6 5 6 8 -1 8 -6 0 -13 -3 -17 -6z"/>
<path d="M1260 2336 c0 -2 8 -10 18 -17 15 -13 16 -12 3 4 -13 16 -21 21 -21
13z"/>
<path d="M1615 2290 c25 -22 49 -40 53 -40 4 0 -11 14 -32 31 -28 24 -34 34
-24 40 9 6 4 9 -15 9 -28 0 -28 0 18 -40z"/>
<path d="M1494 2294 c-18 -14 -18 -15 4 -4 12 6 22 13 22 15 0 8 -5 6 -26 -11z"/>
<path d="M1310 2296 c0 -2 7 -7 16 -10 8 -3 12 -2 9 4 -6 10 -25 14 -25 6z"/>
<path d="M1440 2270 c-15 -5 -19 -8 -8 -9 9 -1 18 -11 20 -23 3 -19 5 -17 9
10 3 17 5 32 5 31 -1 -1 -12 -5 -26 -9z"/>
<path d="M2382 2255 c0 -16 2 -22 5 -12 2 9 2 23 0 30 -3 6 -5 -1 -5 -18z"/>
<path d="M1378 2263 c7 -3 16 -2 19 1 4 3 -2 6 -13 5 -11 0 -14 -3 -6 -6z"/>
<path d="M1498 2127 c12 -78 -32 -509 -74 -731 -22 -116 -43 -338 -41 -436 1
-19 -2 -48 -6 -65 -6 -23 -5 -25 2 -10 12 24 14 2 4 -34 -6 -22 -7 -23 -13 -6
-4 12 -12 -11 -23 -65 -14 -70 -15 -87 -4 -104 12 -18 11 -27 -4 -61 -25 -54
-25 -107 0 -122 17 -10 19 -8 25 19 10 49 23 58 87 58 131 0 189 -29 174 -87
-5 -21 -3 -24 10 -19 9 3 21 6 26 6 5 0 18 9 29 20 23 23 27 88 8 121 -11 18
-10 23 10 36 18 13 22 25 22 68 0 110 49 398 122 720 27 121 52 252 55 292 3
40 9 70 14 68 15 -10 39 -101 58 -220 11 -66 32 -194 46 -283 14 -90 37 -205
50 -255 19 -77 23 -115 22 -234 -1 -123 1 -144 17 -162 14 -16 16 -23 6 -41
-17 -31 -16 -110 0 -120 18 -11 30 -3 30 18 0 10 7 28 16 40 14 20 24 22 98
22 101 0 144 -13 152 -46 3 -13 4 -31 0 -39 -9 -24 19 -18 53 11 36 30 40 63
12 114 -19 35 -19 35 2 57 27 30 26 116 -2 197 -12 33 -21 73 -21 90 0 17 -11
89 -25 160 -41 215 -86 590 -96 806 -5 113 -10 212 -11 221 -2 13 -8 12 -37
-8 -19 -13 -66 -34 -105 -46 -62 -19 -92 -22 -231 -21 -136 1 -177 5 -274 27
-67 16 -130 37 -151 51 l-36 24 4 -31z m28 -156 c-9 -182 -37 -406 -76 -604
-17 -84 -33 -192 -37 -242 -3 -49 -9 -97 -14 -105 -5 -9 -6 6 -4 35 2 28 7 86
10 130 2 44 16 136 29 205 35 181 76 555 76 693 0 34 3 46 11 41 9 -5 10 -48
5 -153z m-119 -1063 c-2 -13 -4 -3 -4 22 0 25 2 35 4 23 2 -13 2 -33 0 -45z
m-57 -205 c-11 -17 -11 -17 -6 0 3 10 7 31 7 45 l2 27 4 -27 c2 -15 -1 -35 -7
-45z"/>
</g>
</svg>
